<svg width="80" height="80" viewBox="0 0 80 80" fill="none" xmlns="http://www.w3.org/2000/svg">
<g clip-path="url(#clip0_1930_100)">
<g clip-path="url(#clip1_1930_100)">
<path d="M6.25 58.75H3.75V11.25C3.75 10.2554 4.14509 9.30161 4.84835 8.59835C5.55161 7.89509 6.50544 7.5 7.5 7.5H10V10H7.5C7.16848 10 6.85054 10.1317 6.61612 10.3661C6.3817 10.6005 6.25 10.9185 6.25 11.25V58.75Z" fill="#134F98"/>
<path d="M76.25 42.5H73.75V11.25C73.75 10.9185 73.6183 10.6005 73.3839 10.3661C73.1495 10.1317 72.8315 10 72.5 10H70V7.5H72.5C73.4946 7.5 74.4484 7.89509 75.1516 8.59835C75.8549 9.30161 76.25 10.2554 76.25 11.25V42.5Z" fill="#134F98"/>
<path d="M6.25058 67.5H1.25058C1.03749 67.5001 0.827906 67.4457 0.641741 67.342C0.455577 67.2383 0.299013 67.0888 0.186918 66.9075C0.0748238 66.7263 0.0109213 66.5194 0.0012802 66.3066C-0.00836095 66.0937 0.0365794 65.8819 0.131833 65.6913L3.88183 58.1913C3.98567 57.9835 4.14535 57.8087 4.34296 57.6866C4.54057 57.5645 4.76829 57.4999 5.00058 57.5H12.5006V60H5.77308L3.27308 65H6.25058V67.5Z" fill="#134F98"/>
<path d="M8.75 65H11.25V67.5H8.75V65Z" fill="#134F98"/>
<path d="M13.75 65H41.25V67.5H13.75V65Z" fill="#134F98"/>
<path d="M46.25 70H48.75V72.5H46.25V70Z" fill="#134F98"/>
<path d="M43.75 72.5H6.25C4.59301 72.498 3.00445 71.8389 1.83277 70.6672C0.661102 69.4956 0.00198482 67.907 0 66.25H2.5C2.5 67.2446 2.89509 68.1984 3.59835 68.9016C4.30161 69.6049 5.25544 70 6.25 70H43.75V72.5Z" fill="#134F98"/>
<path d="M31.1875 66.645L28.8125 65.855L30.0625 62.105C30.1456 61.8556 30.3052 61.6387 30.5186 61.4852C30.732 61.3317 30.9884 61.2494 31.2513 61.25H41.2513V63.75H32.1525L31.1875 66.645Z" fill="#134F98"/>
<path d="M76.2501 80H56.2501C55.9186 80 55.6006 79.8683 55.3662 79.6339C55.1318 79.3995 55.0001 79.0815 55.0001 78.75V74.175L43.3088 58.975C42.7796 58.2969 42.4947 57.4601 42.5001 56.6V56.4C42.5006 55.6286 42.7297 54.8747 43.1585 54.2335C43.5873 53.5923 44.1965 53.0925 44.9091 52.7973C45.6218 52.5021 46.4059 52.4247 47.1625 52.5749C47.9191 52.7251 48.6142 53.0962 49.1601 53.6412L52.5001 56.9825V36.875C52.5001 35.7147 52.961 34.6019 53.7815 33.7814C54.602 32.9609 55.7148 32.5 56.8751 32.5C58.0354 32.5 59.1482 32.9609 59.9687 33.7814C60.7891 34.6019 61.2501 35.7147 61.2501 36.875V42.9175C62.2205 42.4607 63.3247 42.3754 64.3538 42.6776C65.3829 42.9798 66.2657 43.6486 66.8351 44.5575C67.3959 44.1598 68.0424 43.8996 68.7224 43.798C69.4024 43.6964 70.0967 43.7561 70.7493 43.9725C71.4019 44.1888 71.9944 44.5557 72.479 45.0434C72.9636 45.5311 73.3267 46.126 73.5388 46.78C74.3683 46.3303 75.3207 46.1604 76.2545 46.2956C77.1882 46.4307 78.0534 46.8636 78.7213 47.53C79.5387 48.3529 79.9983 49.4651 80.0001 50.625V66C80.0027 67.1567 79.7807 68.3029 79.3463 69.375L77.9713 72.8175C77.6585 73.5903 77.4985 74.4163 77.5001 75.25V78.75C77.5001 79.0815 77.3684 79.3995 77.134 79.6339C76.8995 79.8683 76.5816 80 76.2501 80ZM57.5001 77.5H75.0001V75.25C74.9974 74.0933 75.2194 72.9471 75.6538 71.875L77.0288 68.4325C77.3416 67.6597 77.5016 66.8337 77.5001 66V50.625C77.5001 50.1277 77.3025 49.6508 76.9509 49.2992C76.5993 48.9475 76.1224 48.75 75.6251 48.75C75.1278 48.75 74.6509 48.9475 74.2992 49.2992C73.9476 49.6508 73.7501 50.1277 73.7501 50.625C73.7501 50.9565 73.6184 51.2745 73.384 51.5089C73.1495 51.7433 72.8316 51.875 72.5001 51.875C72.1686 51.875 71.8506 51.7433 71.6162 51.5089C71.3818 51.2745 71.2501 50.9565 71.2501 50.625V48.125C71.2501 47.6277 71.0525 47.1508 70.7009 46.7992C70.3493 46.4475 69.8724 46.25 69.3751 46.25C68.8778 46.25 68.4009 46.4475 68.0492 46.7992C67.6976 47.1508 67.5001 47.6277 67.5001 48.125C67.5001 48.4565 67.3684 48.7745 67.134 49.0089C66.8995 49.2433 66.5816 49.375 66.2501 49.375C65.9186 49.375 65.6006 49.2433 65.3662 49.0089C65.1318 48.7745 65.0001 48.4565 65.0001 48.125V46.875C65.0001 46.3777 64.8025 45.9008 64.4509 45.5492C64.0993 45.1975 63.6224 45 63.1251 45C62.6278 45 62.1509 45.1975 61.7992 45.5492C61.4476 45.9008 61.2501 46.3777 61.2501 46.875C61.2501 47.2065 61.1184 47.5245 60.884 47.7589C60.6495 47.9933 60.3316 48.125 60.0001 48.125C59.6686 48.125 59.3506 47.9933 59.1162 47.7589C58.8818 47.5245 58.7501 47.2065 58.7501 46.875V36.875C58.7501 36.3777 58.5525 35.9008 58.2009 35.5492C57.8493 35.1975 57.3724 35 56.8751 35C56.3778 35 55.9009 35.1975 55.5492 35.5492C55.1976 35.9008 55.0001 36.3777 55.0001 36.875V60C55 60.2472 54.9267 60.4888 54.7893 60.6943C54.652 60.8998 54.4568 61.06 54.2284 61.1546C54 61.2492 53.7487 61.2739 53.5063 61.2257C53.2638 61.1775 53.0411 61.0585 52.8663 60.8838L47.3913 55.4087C47.1953 55.213 46.9456 55.0798 46.6739 55.0259C46.4022 54.9721 46.1206 54.9999 45.8647 55.106C45.6088 55.2121 45.3901 55.3916 45.2362 55.6219C45.0823 55.8522 45.0002 56.123 45.0001 56.4V56.6C44.9971 56.9044 45.0971 57.2008 45.2838 57.4412L57.2401 72.9887C57.4088 73.2066 57.5003 73.4744 57.5001 73.75V77.5Z" fill="#134F98"/>
<path d="M58.75 46.25H61.25V56.25H58.75V46.25Z" fill="#134F98"/>
<path d="M65 47.5H67.5V56.25H65V47.5Z" fill="#134F98"/>
<path d="M71.25 50H73.75V56.25H71.25V50Z" fill="#134F98"/>
<path d="M42.5 5H57.5V7.5H42.5V5Z" fill="#134F98"/>
<path d="M22.5 5H37.5V7.5H22.5V5Z" fill="#134F98"/>
<path d="M41.25 60H10C9.66848 60 9.35054 59.8683 9.11612 59.6339C8.8817 59.3995 8.75 59.0815 8.75 58.75V6.25C8.75 5.91848 8.8817 5.60054 9.11612 5.36612C9.35054 5.1317 9.66848 5 10 5H17.5V7.5H11.25V57.5H41.25V60Z" fill="#134F98"/>
<path d="M71.25 42.5H68.75V7.5H62.5V5H70C70.3315 5 70.6495 5.1317 70.8839 5.36612C71.1183 5.60054 71.25 5.91848 71.25 6.25V42.5Z" fill="#134F98"/>
<path d="M60 12.5C59.0054 12.5 58.0516 12.1049 57.3484 11.4017C56.6451 10.6984 56.25 9.74456 56.25 8.75V3.75C56.25 2.75544 56.6451 1.80161 57.3484 1.09835C58.0516 0.395088 59.0054 0 60 0C60.9946 0 61.9484 0.395088 62.6516 1.09835C63.3549 1.80161 63.75 2.75544 63.75 3.75V8.75C63.75 9.74456 63.3549 10.6984 62.6516 11.4017C61.9484 12.1049 60.9946 12.5 60 12.5ZM60 2.5C59.6685 2.5 59.3505 2.6317 59.1161 2.86612C58.8817 3.10054 58.75 3.41848 58.75 3.75V8.75C58.75 9.08152 58.8817 9.39946 59.1161 9.63388C59.3505 9.8683 59.6685 10 60 10C60.3315 10 60.6495 9.8683 60.8839 9.63388C61.1183 9.39946 61.25 9.08152 61.25 8.75V3.75C61.25 3.41848 61.1183 3.10054 60.8839 2.86612C60.6495 2.6317 60.3315 2.5 60 2.5Z" fill="#134F98"/>
<path d="M20 12.5C19.0054 12.5 18.0516 12.1049 17.3483 11.4017C16.6451 10.6984 16.25 9.74456 16.25 8.75V3.75C16.25 2.75544 16.6451 1.80161 17.3483 1.09835C18.0516 0.395088 19.0054 0 20 0C20.9946 0 21.9484 0.395088 22.6517 1.09835C23.3549 1.80161 23.75 2.75544 23.75 3.75V8.75C23.75 9.74456 23.3549 10.6984 22.6517 11.4017C21.9484 12.1049 20.9946 12.5 20 12.5ZM20 2.5C19.6685 2.5 19.3505 2.6317 19.1161 2.86612C18.8817 3.10054 18.75 3.41848 18.75 3.75V8.75C18.75 9.08152 18.8817 9.39946 19.1161 9.63388C19.3505 9.8683 19.6685 10 20 10C20.3315 10 20.6495 9.8683 20.8839 9.63388C21.1183 9.39946 21.25 9.08152 21.25 8.75V3.75C21.25 3.41848 21.1183 3.10054 20.8839 2.86612C20.6495 2.6317 20.3315 2.5 20 2.5Z" fill="#134F98"/>
<path d="M40 12.5C39.0054 12.5 38.0516 12.1049 37.3483 11.4017C36.6451 10.6984 36.25 9.74456 36.25 8.75V3.75C36.25 2.75544 36.6451 1.80161 37.3483 1.09835C38.0516 0.395088 39.0054 0 40 0C40.9946 0 41.9484 0.395088 42.6516 1.09835C43.3549 1.80161 43.75 2.75544 43.75 3.75V8.75C43.75 9.74456 43.3549 10.6984 42.6516 11.4017C41.9484 12.1049 40.9946 12.5 40 12.5ZM40 2.5C39.6685 2.5 39.3505 2.6317 39.1161 2.86612C38.8817 3.10054 38.75 3.41848 38.75 3.75V8.75C38.75 9.08152 38.8817 9.39946 39.1161 9.63388C39.3505 9.8683 39.6685 10 40 10C40.3315 10 40.6495 9.8683 40.8839 9.63388C41.1183 9.39946 41.25 9.08152 41.25 8.75V3.75C41.25 3.41848 41.1183 3.10054 40.8839 2.86612C40.6495 2.6317 40.3315 2.5 40 2.5Z" fill="#134F98"/>
<path d="M10 16.25H70V18.75H10V16.25Z" fill="#134F98"/>
<path d="M61.25 32.5H56.25C55.9185 32.5 55.6005 32.3683 55.3661 32.1339C55.1317 31.8995 55 31.5815 55 31.25V30H53.75C53.4185 30 53.1005 29.8683 52.8661 29.6339C52.6317 29.3995 52.5 29.0815 52.5 28.75V23.75C52.5 23.4185 52.6317 23.1005 52.8661 22.8661C53.1005 22.6317 53.4185 22.5 53.75 22.5H55V21.25C55 20.9185 55.1317 20.6005 55.3661 20.3661C55.6005 20.1317 55.9185 20 56.25 20H61.25C61.5815 20 61.8995 20.1317 62.1339 20.3661C62.3683 20.6005 62.5 20.9185 62.5 21.25V22.5H63.75C64.0815 22.5 64.3995 22.6317 64.6339 22.8661C64.8683 23.1005 65 23.4185 65 23.75V28.75C65 29.0815 64.8683 29.3995 64.6339 29.6339C64.3995 29.8683 64.0815 30 63.75 30H62.5V31.25C62.5 31.5815 62.3683 31.8995 62.1339 32.1339C61.8995 32.3683 61.5815 32.5 61.25 32.5ZM57.5 30H60V28.75C60 28.4185 60.1317 28.1005 60.3661 27.8661C60.6005 27.6317 60.9185 27.5 61.25 27.5H62.5V25H61.25C60.9185 25 60.6005 24.8683 60.3661 24.6339C60.1317 24.3995 60 24.0815 60 23.75V22.5H57.5V23.75C57.5 24.0815 57.3683 24.3995 57.1339 24.6339C56.8995 24.8683 56.5815 25 56.25 25H55V27.5H56.25C56.5815 27.5 56.8995 27.6317 57.1339 27.8661C57.3683 28.1005 57.5 28.4185 57.5 28.75V30Z" fill="#134F98"/>
<path d="M23.75 30H18.75C18.4185 30 18.1005 29.8683 17.8661 29.6339C17.6317 29.3995 17.5 29.0815 17.5 28.75V23.75C17.5 23.4185 17.6317 23.1005 17.8661 22.8661C18.1005 22.6317 18.4185 22.5 18.75 22.5H23.75C24.0815 22.5 24.3995 22.6317 24.6339 22.8661C24.8683 23.1005 25 23.4185 25 23.75V28.75C25 29.0815 24.8683 29.3995 24.6339 29.6339C24.3995 29.8683 24.0815 30 23.75 30ZM20 27.5H22.5V25H20V27.5Z" fill="#134F98"/>
<path d="M48.75 30H43.75C43.4185 30 43.1005 29.8683 42.8661 29.6339C42.6317 29.3995 42.5 29.0815 42.5 28.75V23.75C42.5 23.4185 42.6317 23.1005 42.8661 22.8661C43.1005 22.6317 43.4185 22.5 43.75 22.5H48.75C49.0815 22.5 49.3995 22.6317 49.6339 22.8661C49.8683 23.1005 50 23.4185 50 23.75V28.75C50 29.0815 49.8683 29.3995 49.6339 29.6339C49.3995 29.8683 49.0815 30 48.75 30ZM45 27.5H47.5V25H45V27.5Z" fill="#134F98"/>
<path d="M36.25 30H31.25C30.9185 30 30.6005 29.8683 30.3661 29.6339C30.1317 29.3995 30 29.0815 30 28.75V23.75C30 23.4185 30.1317 23.1005 30.3661 22.8661C30.6005 22.6317 30.9185 22.5 31.25 22.5H36.25C36.5815 22.5 36.8995 22.6317 37.1339 22.8661C37.3683 23.1005 37.5 23.4185 37.5 23.75V28.75C37.5 29.0815 37.3683 29.3995 37.1339 29.6339C36.8995 29.8683 36.5815 30 36.25 30ZM32.5 27.5H35V25H32.5V27.5Z" fill="#134F98"/>
<path d="M23.75 41.25H18.75C18.4185 41.25 18.1005 41.1183 17.8661 40.8839C17.6317 40.6495 17.5 40.3315 17.5 40V35C17.5 34.6685 17.6317 34.3505 17.8661 34.1161C18.1005 33.8817 18.4185 33.75 18.75 33.75H23.75C24.0815 33.75 24.3995 33.8817 24.6339 34.1161C24.8683 34.3505 25 34.6685 25 35V40C25 40.3315 24.8683 40.6495 24.6339 40.8839C24.3995 41.1183 24.0815 41.25 23.75 41.25ZM20 38.75H22.5V36.25H20V38.75Z" fill="#134F98"/>
<path d="M48.75 41.25H43.75C43.4185 41.25 43.1005 41.1183 42.8661 40.8839C42.6317 40.6495 42.5 40.3315 42.5 40V35C42.5 34.6685 42.6317 34.3505 42.8661 34.1161C43.1005 33.8817 43.4185 33.75 43.75 33.75H48.75C49.0815 33.75 49.3995 33.8817 49.6339 34.1161C49.8683 34.3505 50 34.6685 50 35V40C50 40.3315 49.8683 40.6495 49.6339 40.8839C49.3995 41.1183 49.0815 41.25 48.75 41.25ZM45 38.75H47.5V36.25H45V38.75Z" fill="#134F98"/>
<path d="M36.25 41.25H31.25C30.9185 41.25 30.6005 41.1183 30.3661 40.8839C30.1317 40.6495 30 40.3315 30 40V35C30 34.6685 30.1317 34.3505 30.3661 34.1161C30.6005 33.8817 30.9185 33.75 31.25 33.75H36.25C36.5815 33.75 36.8995 33.8817 37.1339 34.1161C37.3683 34.3505 37.5 34.6685 37.5 35V40C37.5 40.3315 37.3683 40.6495 37.1339 40.8839C36.8995 41.1183 36.5815 41.25 36.25 41.25ZM32.5 38.75H35V36.25H32.5V38.75Z" fill="#134F98"/>
<path d="M23.75 52.5H18.75C18.4185 52.5 18.1005 52.3683 17.8661 52.1339C17.6317 51.8995 17.5 51.5815 17.5 51.25V46.25C17.5 45.9185 17.6317 45.6005 17.8661 45.3661C18.1005 45.1317 18.4185 45 18.75 45H23.75C24.0815 45 24.3995 45.1317 24.6339 45.3661C24.8683 45.6005 25 45.9185 25 46.25V51.25C25 51.5815 24.8683 51.8995 24.6339 52.1339C24.3995 52.3683 24.0815 52.5 23.75 52.5ZM20 50H22.5V47.5H20V50Z" fill="#134F98"/>
<path d="M48.75 52.5H43.75C43.4185 52.5 43.1005 52.3683 42.8661 52.1339C42.6317 51.8995 42.5 51.5815 42.5 51.25V46.25C42.5 45.9185 42.6317 45.6005 42.8661 45.3661C43.1005 45.1317 43.4185 45 43.75 45H48.75C49.0815 45 49.3995 45.1317 49.6339 45.3661C49.8683 45.6005 50 45.9185 50 46.25V51.25C50 51.5815 49.8683 51.8995 49.6339 52.1339C49.3995 52.3683 49.0815 52.5 48.75 52.5ZM45 50H47.5V47.5H45V50Z" fill="#134F98"/>
<path d="M36.25 52.5H31.25C30.9185 52.5 30.6005 52.3683 30.3661 52.1339C30.1317 51.8995 30 51.5815 30 51.25V46.25C30 45.9185 30.1317 45.6005 30.3661 45.3661C30.6005 45.1317 30.9185 45 31.25 45H36.25C36.5815 45 36.8995 45.1317 37.1339 45.3661C37.3683 45.6005 37.5 45.9185 37.5 46.25V51.25C37.5 51.5815 37.3683 51.8995 37.1339 52.1339C36.8995 52.3683 36.5815 52.5 36.25 52.5ZM32.5 50H35V47.5H32.5V50Z" fill="#134F98"/>
</g>
</g>
<defs>
<clipPath id="clip0_1930_100">
<rect width="80" height="80" fill="white"/>
</clipPath>
<clipPath id="clip1_1930_100">
<rect width="80" height="80" fill="white"/>
</clipPath>
</defs>
</svg>
