<svg width="80" height="80" viewBox="0 0 80 80" fill="none" xmlns="http://www.w3.org/2000/svg">
<g clip-path="url(#clip0_1930_231)">
<path d="M72.248 63.5852H70.6454V61.9148C70.6454 61.2026 70.0674 60.6245 69.3551 60.6245C68.6428 60.6245 68.0648 61.2026 68.0648 61.9148V63.5852H66.4622C65.7499 63.5852 65.1719 64.1632 65.1719 64.8755C65.1719 65.5877 65.7499 66.1658 66.4622 66.1658H68.0648V67.8361C68.0648 68.5484 68.6428 69.1264 69.3551 69.1264C70.0674 69.1264 70.6454 68.5484 70.6454 67.8361V66.1658H72.248C72.9603 66.1658 73.5383 65.5877 73.5383 64.8755C73.5383 64.1632 72.9603 63.5852 72.248 63.5852Z" fill="#134F98"/>
<path d="M61.0721 21.3969H60.3192V20.5962C60.3192 19.884 59.7411 19.3059 59.0289 19.3059C58.3166 19.3059 57.7385 19.884 57.7385 20.5962V21.3969H56.9856C56.2734 21.3969 55.6953 21.9749 55.6953 22.6872C55.6953 23.3995 56.2734 23.9775 56.9856 23.9775H57.7385V24.7782C57.7385 25.4904 58.3166 26.0685 59.0289 26.0685C59.7411 26.0685 60.3192 25.4904 60.3192 24.7782V23.9775H61.0721C61.7843 23.9775 62.3624 23.3995 62.3624 22.6872C62.3624 21.9749 61.785 21.3969 61.0721 21.3969Z" fill="#134F98"/>
<path d="M74.6343 29.6135C74.3046 29.5193 73.9717 29.4839 73.6452 29.5032C73.7375 27.2793 73.6923 24.7761 73.2381 22.3658L70.6665 11.3942C69.9459 8.38773 66.9356 7.09677 64.6188 7.09741H53.4349C50.9498 7.09741 47.9969 8.82193 47.3872 11.3942L44.8169 22.3658C44.3633 24.7723 44.3162 27.271 44.4085 29.4942C42.1562 29.3471 40.9239 31.54 41.0749 33.5426C41.3827 37.1439 52.1833 47.66 57.231 48.3948C58.3517 48.6032 59.493 48.5845 60.6201 48.4419C65.6981 47.7942 76.6472 37.2168 76.9607 33.5574C77.153 31.189 75.8278 29.9523 74.6343 29.6135ZM49.8756 12.0845C50.4923 10.62 51.8801 9.6787 53.4349 9.6787H64.6188C66.1736 9.6787 67.5614 10.62 68.1775 12.0845L70.3014 21.1006L66.4278 21.0916C65.8052 17.5561 62.7272 14.8587 59.0265 14.8587C55.3375 14.8587 52.2672 17.5381 51.6304 21.0568L47.7614 21.0477L49.8756 12.0845ZM63.9691 22.4058C63.9691 25.1445 61.7517 27.3722 59.0265 27.3722C56.3014 27.3722 54.084 25.1445 54.084 22.4058C54.084 19.6671 56.3014 17.4393 59.0265 17.4393C61.7517 17.4393 63.9691 19.6671 63.9691 22.4058ZM74.3885 33.3426C74.1807 35.3271 64.5788 45.3361 60.2936 45.8819C59.4252 45.9929 58.5452 46.0181 57.6807 45.8542C57.6594 45.8497 57.6381 45.8464 57.6162 45.8432C53.3575 45.2581 43.8452 35.2819 43.6465 33.3368C43.6207 32.9955 43.6259 32.46 43.9149 32.2052C44.1962 31.9568 44.5362 32.1058 44.6988 32.4219C45.3265 33.6393 47.2401 33.0968 47.1317 31.729C46.9465 29.3961 46.8014 26.4406 47.2156 23.6284H47.2569L51.613 23.6374C52.202 27.2142 55.2975 29.9529 59.0272 29.9529C62.7446 29.9529 65.8323 27.2316 66.4356 23.6716L70.753 23.6819V23.6916H70.8465C71.2498 26.4871 71.1046 29.4168 70.9214 31.7284C70.8123 33.0961 72.7323 33.6413 73.3569 32.4168C73.5194 32.0981 73.8498 31.9742 74.1285 32.2148C74.4175 32.4658 74.4162 33.0039 74.3885 33.3426Z" fill="#134F98"/>
<path d="M78.5548 63.7465C76.7787 59.1175 73.2877 55.1362 69.1342 52.4723L65.9503 49.1549C65.5161 48.7026 64.8213 48.6271 64.3 48.9775L58.8277 52.6523L53.7794 49.0755C53.2813 48.722 52.6039 48.7665 52.1561 49.182L47.4832 53.5155C44.671 55.5936 42.2019 58.3207 40.5632 61.4213C38.5432 56.1355 34.3013 51.8575 29.429 49.0917C28.8181 48.3349 28.2968 47.5117 27.7116 46.7355C28.8194 45.7123 30.0587 44.1697 31.4619 41.7542C32.3006 40.311 33.0465 38.8013 33.7148 37.2413C36.4561 37.7994 38.5103 35.1123 39.1032 32.7613C39.8058 29.9788 38.891 27.3491 37.0039 26.3962L37.0045 26.3884C37.2097 24.4046 37.491 21.6878 36.4774 18.3852C36.0606 17.0291 34.9555 13.4284 31.5884 10.6065C28.0606 7.6149 24.0697 7.18651 21.9703 7.19426C14.1781 6.40909 9.6871 10.6459 8.95806 11.3968C6.6129 13.1659 6.66968 15.6168 7.21419 17.2401C6.84065 17.5678 5.88645 18.5104 5.56194 19.4084C4.58645 22.1065 4.79871 24.5988 5.04903 26.3936C2.97226 27.802 1.98839 30.4117 2.69548 32.8891C3.39742 35.3484 5.67871 37.0672 8.19613 37.082C8.87677 38.6143 9.63806 40.0962 10.4974 41.5123C12.0368 44.0491 13.429 45.6665 14.6413 46.7278C14.3368 47.5078 13.7613 48.5788 12.9639 48.9484C7.46645 51.5097 3.02194 56.3813 1.10839 62.1575C0.0051613 65.4852 0 71.5536 0 71.6142C0.000645161 72.3265 0.578065 72.9033 1.29032 72.9033H78.7097C79.4219 72.9033 80 72.3252 80 71.6129C80 68.8917 79.5135 66.2452 78.5548 63.7465ZM5.17677 32.1794C4.90387 31.2226 5.09871 30.2072 5.62968 29.411C6.04387 31.0452 6.49548 32.6781 7.06452 34.2652C6.17419 33.9039 5.45355 33.1491 5.17677 32.1794ZM30.5994 61.033C31.0458 61.033 31.409 61.422 31.409 61.9C31.409 62.3781 31.0458 62.7671 30.5994 62.7671C30.1529 62.7671 29.7897 62.3781 29.7897 61.9C29.7897 61.422 30.1523 61.033 30.5994 61.033ZM36.4903 29.5213C36.7665 30.1749 36.8581 31.1117 36.6013 32.1291C36.3548 33.1033 35.7535 34.3201 34.7284 34.6652C35.3387 32.9465 36.0787 31.3226 36.4903 29.5213ZM8.08 23.2897C7.83097 23.9059 7.42452 24.4781 7.5 25.1336C7.25806 23.0246 8.10452 19.7994 8.78 19.2988C9.51742 18.7523 10.26 18.0859 9.8929 16.942C9.39548 15.3917 10.7123 13.2988 10.7703 13.2349C10.9284 13.0626 14.7232 9.03103 21.7761 9.7678C21.8258 9.77296 21.8735 9.77361 21.9258 9.7749C23.6477 9.7478 26.9897 10.0891 29.9252 12.5794C32.7129 14.9155 33.6219 17.8775 34.0103 19.142C34.5361 20.8555 34.651 22.3878 34.6161 23.7459C34.4516 22.7284 34.2523 21.711 34.0213 20.7097C33.8497 19.9633 33.0316 19.5226 32.3123 19.791C30.2806 20.5497 28.5019 20.6833 26.8768 20.1988C26.1355 19.9755 23.8529 18.4788 22.4955 17.9736C22.4955 17.9736 19.1116 16.3323 15.3342 17.1736C13.9484 17.482 12.6142 17.9046 11.4297 18.7149C9.77871 19.8433 8.81419 21.4717 8.08 23.2897ZM12.7032 40.1723C11.1658 37.6388 9.93677 34.8917 9.01097 31.9665C9.01355 31.9504 9.01871 31.9355 9.02 31.9194C9.29226 29.3994 9.5329 26.6343 10.4723 24.2555C10.9948 22.9317 11.649 21.7117 12.8387 20.8717C13.74 20.2362 14.7768 19.9175 15.8458 19.7007C18.4052 19.1833 21.5955 20.3904 21.5955 20.3904C23.0929 20.9478 24.2929 22.0381 25.7994 22.5594C27.7335 23.2291 29.8355 23.1723 31.7994 22.6575C32.4761 26.0891 32.7574 29.5878 32.531 33.0801C31.66 35.6904 30.5632 38.1601 29.229 40.4562C26.7787 44.6742 25.0974 45.7226 23.7755 46.1923C21.4219 47.0297 19.2671 46.4033 18.6626 46.1904C17.8619 45.911 15.7335 45.1646 12.7032 40.1723ZM26.8258 49.9297C23.5955 52.6162 18.8265 52.782 15.4961 50.1788C15.8516 49.7736 16.3819 49.1226 16.82 48.2123C17.1794 48.3897 17.5103 48.522 17.8103 48.6271C20.311 49.5039 23.22 49.402 25.6052 48.2168C26.0239 48.7794 26.4123 49.3633 26.8258 49.9297ZM2.60645 70.3226C2.67871 68.2704 2.92129 64.8904 3.55806 62.9691C4.71161 59.4897 6.92129 56.3717 9.74774 54.0246L9.78581 59.462L7.77742 60.4813C5.80581 61.4813 4.58064 63.3891 4.58064 65.46V67.82C4.58064 68.5323 5.15871 69.1104 5.87097 69.1104C6.58323 69.1104 7.16129 68.5323 7.16129 67.82V65.46C7.16129 63.3 9.44645 62.5278 11.0471 61.7155C12.5077 62.5439 14.4503 63.3362 14.4503 65.3168V67.82C14.4503 68.5323 15.0284 69.1104 15.7406 69.1104C16.4529 69.1104 17.031 68.5323 17.031 67.82V65.3168C17.031 63.3297 15.9335 61.5207 14.0948 60.4775L12.3665 59.4968L12.3148 52.2071C12.6265 52.022 12.9419 51.8433 13.2626 51.6762C17.6342 55.6039 24.3665 55.5639 28.7535 51.6833C28.94 51.7962 29.1239 51.9149 29.3077 52.033V58.7149C28.0768 59.2323 27.2077 60.4639 27.2077 61.9C27.2077 63.8007 28.7284 65.3478 30.5981 65.3478C32.4677 65.3478 33.9884 63.8013 33.9884 61.9C33.9884 60.4639 33.1187 59.2323 31.8884 58.7149V53.9097C34.7903 56.3104 37.1568 59.3613 38.3794 62.9484C38.7374 64 39.2123 67.5413 39.3348 70.3233L2.60645 70.3226ZM64.8394 51.7233L66.4477 53.3988L62.9213 58.493L60.471 54.6575L64.8394 51.7233ZM51.4329 53.3717L53.1426 51.7871L57.1174 54.6026L54.9019 58.493L51.3871 53.4142L51.4329 53.3717ZM41.9168 70.3226C41.8652 69.1078 41.7497 67.7284 41.5974 66.4291C41.9703 64.9588 42.329 63.7271 42.4161 63.4936C43.5484 61.0304 44.9561 59.4504 45.7123 58.6026C46.8581 57.3175 48.2239 56.3471 49.4755 55.1871L53.9316 61.6246C54.4606 62.3878 55.6348 62.3452 56.1058 61.5426L58.0445 58.2362C58.049 58.2278 58.0542 58.2207 58.0581 58.2123L58.8277 56.8336L59.8006 58.2723L61.7187 61.5426C62.189 62.3452 63.3632 62.3878 63.8929 61.6246L68.4084 55.1007C69.7142 56.0084 70.9245 57.0484 72.0045 58.2188C72.9297 59.2194 74.8542 61.302 76.1458 64.671C76.8394 66.4775 77.2523 68.373 77.3781 70.3226H41.9168Z" fill="#134F98"/>
</g>
<defs>
<clipPath id="clip0_1930_231">
<rect width="80" height="80" fill="white"/>
</clipPath>
</defs>
</svg>
