<svg width="80" height="80" viewBox="0 0 80 80" fill="none" xmlns="http://www.w3.org/2000/svg">
<path fill-rule="evenodd" clip-rule="evenodd" d="M30.9208 38.795L31.0994 38.6442C31.1908 38.5671 31.2965 38.5088 31.4104 38.4727C31.5243 38.4366 31.6442 38.4233 31.7632 38.4336C31.8823 38.4439 31.9981 38.4776 32.1042 38.5327C32.2102 38.5879 32.3044 38.6635 32.3813 38.7551C32.4582 38.8467 32.5163 38.9526 32.5524 39.0668C32.5884 39.1809 32.6017 39.3011 32.5914 39.4203C32.5811 39.5396 32.5475 39.6557 32.4925 39.762C32.4374 39.8682 32.362 39.9626 32.2706 40.0397L30.9208 41.179V47.6575C30.9208 47.9006 30.8244 48.1338 30.6528 48.3057C30.4813 48.4776 30.2486 48.5742 30.006 48.5742H20.5375C20.2949 48.5742 20.0623 48.4776 19.8907 48.3057C19.7192 48.1338 19.6228 47.9006 19.6228 47.6575V38.1683C19.6228 37.9252 19.7192 37.6921 19.8907 37.5202C20.0623 37.3482 20.2949 37.2517 20.5375 37.2517H30.0065C30.2491 37.2517 30.4818 37.3482 30.6533 37.5202C30.8249 37.6921 30.9213 37.9252 30.9213 38.1683V38.795H30.9208ZM22.4975 42.8207C22.4027 42.7465 22.3235 42.6542 22.2646 42.5491C22.2056 42.444 22.168 42.3283 22.154 42.2085C22.1399 42.0888 22.1497 41.9675 22.1828 41.8516C22.2159 41.7357 22.2716 41.6275 22.3467 41.5333C22.4218 41.4391 22.5148 41.3608 22.6203 41.3029C22.7258 41.2449 22.8417 41.2085 22.9614 41.1958C23.081 41.1831 23.2019 41.1943 23.3172 41.2287C23.4325 41.2632 23.5398 41.3202 23.633 41.3965L25.7898 43.1257L29.0925 40.3382V39.0843H21.4516V46.7413H29.0925V42.7222L26.3905 45.0027C26.2295 45.1382 26.0266 45.2137 25.8164 45.2163C25.6061 45.2189 25.4014 45.1485 25.2371 45.017L22.4975 42.8207ZM35.0281 23.9685C34.7887 23.9653 34.5603 23.8677 34.3922 23.6969C34.2241 23.5262 34.1298 23.296 34.1298 23.0561C34.1298 22.8162 34.2241 22.586 34.3922 22.4152C34.5603 22.2445 34.7887 22.1469 35.0281 22.1437L57.1239 22.1625C57.3654 22.1625 57.597 22.2586 57.7678 22.4298C57.9386 22.6009 58.0345 22.833 58.0345 23.075C58.0345 23.317 57.9386 23.5491 57.7678 23.7202C57.597 23.8914 57.3654 23.9875 57.1239 23.9875L35.0281 23.9685ZM30.9201 22.2073L31.0987 22.0565C31.1902 21.9794 31.2958 21.9212 31.4097 21.885C31.5237 21.8489 31.6435 21.8356 31.7626 21.8459C31.8816 21.8562 31.9975 21.8899 32.1035 21.9451C32.2095 22.0002 32.3037 22.0758 32.3806 22.1674C32.4575 22.259 32.5156 22.365 32.5517 22.4791C32.5877 22.5932 32.601 22.7134 32.5907 22.8327C32.5805 22.952 32.5468 23.0681 32.4918 23.1743C32.4367 23.2806 32.3613 23.3749 32.2699 23.452L30.9201 24.5913V31.0697C30.9201 31.3128 30.8237 31.5459 30.6522 31.7178C30.4806 31.8898 30.248 31.9863 30.0054 31.9863H20.5375C20.2949 31.9863 20.0623 31.8898 19.8907 31.7178C19.7192 31.5459 19.6228 31.3128 19.6228 31.0697V21.5807C19.6228 21.3376 19.7192 21.1044 19.8907 20.9325C20.0623 20.7606 20.2949 20.664 20.5375 20.664H30.0065C30.2491 20.664 30.4818 20.7606 30.6533 20.9325C30.8249 21.1044 30.9213 21.3376 30.9213 21.5807V22.2073H30.9201ZM22.4975 26.2333C22.3121 26.0815 22.194 25.8624 22.1687 25.6238C22.1434 25.3851 22.2131 25.1461 22.3626 24.9586C22.512 24.7712 22.7293 24.6503 22.9671 24.6223C23.205 24.5943 23.4442 24.6615 23.633 24.8092L25.7898 26.5382L29.0925 23.75V22.4967H21.4516V30.1537H29.0925V26.1345L26.3905 28.415C26.2295 28.5505 26.0266 28.626 25.8164 28.6286C25.6061 28.6312 25.4014 28.5608 25.2371 28.4293L22.4975 26.2333ZM32.8028 5.53717H26.5867V12.669H51.0737V5.53717H44.8585V5.53333C44.6448 5.53326 44.438 5.45793 44.2742 5.32053C44.1104 5.18313 43.9999 4.99239 43.9622 4.78167C43.8204 3.99917 43.2338 3.2845 42.3686 2.75267C40.3695 1.524 37.2918 1.524 35.2927 2.75267C34.4515 3.26933 33.8737 3.95967 33.7127 4.71683C33.6889 4.94185 33.5829 5.1501 33.415 5.30148C33.2472 5.45287 33.0294 5.5367 32.8036 5.53683L32.8028 5.53717ZM61.8812 64.673H56.7461C56.2474 64.675 55.7697 64.8744 55.417 65.2278C55.0644 65.5812 54.8654 66.0599 54.8634 66.5597V72.053L61.8819 64.673H61.8812ZM49.8518 61.8762C50.0911 61.8794 50.3196 61.977 50.4877 62.1477C50.6558 62.3185 50.75 62.5487 50.75 62.7886C50.75 63.0285 50.6558 63.2587 50.4877 63.4294C50.3196 63.6002 50.0911 63.6978 49.8518 63.701L35.0281 63.6822C34.7887 63.6789 34.5603 63.5814 34.3922 63.4106C34.2241 63.2399 34.1298 63.0096 34.1298 62.7698C34.1298 62.5299 34.2241 62.2997 34.3922 62.1289C34.5603 61.9581 34.7887 61.8606 35.0281 61.8573L49.8518 61.8762ZM35.0281 57.1438C34.7887 57.1406 34.5603 57.043 34.3922 56.8723C34.2241 56.7015 34.1298 56.4713 34.1298 56.2314C34.1298 55.9915 34.2241 55.7613 34.3922 55.5906C34.5603 55.4198 34.7887 55.3222 35.0281 55.319L57.1239 55.338C57.2445 55.3364 57.3642 55.3588 57.4761 55.4039C57.588 55.449 57.6899 55.5159 57.7757 55.6008C57.8616 55.6857 57.9298 55.7869 57.9763 55.8984C58.0228 56.0099 58.0468 56.1295 58.0468 56.2504C58.0468 56.3713 58.0228 56.491 57.9763 56.6025C57.9298 56.714 57.8616 56.8151 57.7757 56.9C57.6899 56.9849 57.588 57.0518 57.4761 57.097C57.3642 57.1421 57.2445 57.1645 57.1239 57.1628L35.0281 57.1438ZM30.9201 55.3827L31.0987 55.2327C31.1902 55.1556 31.2958 55.0973 31.4097 55.0612C31.5237 55.0251 31.6435 55.0118 31.7626 55.0221C31.8816 55.0324 31.9975 55.0661 32.1035 55.1212C32.2095 55.1764 32.3037 55.252 32.3806 55.3436C32.4575 55.4352 32.5156 55.5411 32.5517 55.6553C32.5877 55.7694 32.601 55.8896 32.5907 56.0088C32.5805 56.1281 32.5468 56.2442 32.4918 56.3505C32.4367 56.4567 32.3613 56.5511 32.2699 56.6282L30.9201 57.7677V64.246C30.9201 64.4891 30.8237 64.7223 30.6522 64.8942C30.4806 65.0661 30.248 65.1627 30.0054 65.1627H20.5375C20.2949 65.1627 20.0623 65.0661 19.8907 64.8942C19.7192 64.7223 19.6228 64.4891 19.6228 64.246V54.756C19.6228 54.5129 19.7192 54.2797 19.8907 54.1078C20.0623 53.9359 20.2949 53.8393 20.5375 53.8393H30.0065C30.2491 53.8393 30.4818 53.9359 30.6533 54.1078C30.8249 54.2797 30.9213 54.5129 30.9213 54.756V55.3827H30.9201ZM22.4975 59.4083C22.4027 59.3341 22.3235 59.2418 22.2646 59.1368C22.2056 59.0317 22.168 58.9159 22.154 58.7962C22.1399 58.6765 22.1497 58.5551 22.1828 58.4392C22.2159 58.3233 22.2716 58.2151 22.3467 58.121C22.4218 58.0268 22.5148 57.9484 22.6203 57.8905C22.7258 57.8326 22.8417 57.7962 22.9614 57.7835C23.081 57.7708 23.2019 57.782 23.3172 57.8164C23.4325 57.8508 23.5398 57.9079 23.633 57.9842L25.7898 59.7133L29.0925 56.9258V55.672H21.4516V63.329H29.0925V59.3098L26.3905 61.5903C26.2295 61.7259 26.0266 61.8013 25.8164 61.804C25.6061 61.8066 25.4014 61.7361 25.2371 61.6047L22.4975 59.4083ZM57.9755 27.3188C55.922 27.3653 53.9656 28.2036 52.5135 29.6593C44.9613 37.2273 58.445 47.271 64.1664 52.7057C66.5131 50.4598 68.9651 48.4057 71.4764 45.889C76.5926 40.7622 80.8801 34.7283 75.8224 29.66C74.3654 28.2092 72.4095 27.3723 70.3562 27.321C68.3029 27.2696 66.3078 28.0078 64.7804 29.384C64.6132 29.5365 64.3953 29.6211 64.1692 29.6214C63.9431 29.6217 63.725 29.5377 63.5573 29.3857C62.0292 28.0063 60.0314 27.2666 57.9755 27.319V27.3188ZM67.833 51.8017C66.7752 52.761 65.7936 53.657 64.9258 54.5195V63.757C64.9262 63.8847 64.8998 64.0111 64.8482 64.1279C64.7966 64.2447 64.721 64.3493 64.6264 64.4348L54.6546 74.921C54.5696 75.0261 54.462 75.1107 54.3399 75.1684C54.2177 75.2261 54.0842 75.2555 53.9491 75.2543H16.4463C15.4628 75.2521 14.5202 74.8596 13.8247 74.1626C13.1293 73.4657 12.7376 72.5211 12.7353 71.5355V14.2898C12.7376 13.3043 13.1293 12.3597 13.8248 11.6628C14.5202 10.9659 15.4628 10.5734 16.4463 10.5712H24.7591V7.65783H16.4463C14.6929 7.66355 13.0128 8.3641 11.7729 9.6066C10.533 10.8491 9.83388 12.5327 9.82814 14.2898V71.5358C9.83388 73.293 10.533 74.9766 11.7729 76.2191C13.0128 77.4616 14.6929 78.1621 16.4463 78.1678H61.2151C62.9685 78.1621 64.6485 77.4615 65.8884 76.219C67.1282 74.9765 67.8273 73.293 67.833 71.5358V51.8017ZM69.6611 25.5043V14.2898C69.6552 12.0469 68.7634 9.89743 67.1808 8.31138C65.5981 6.72533 63.4532 5.83165 61.2149 5.82567H52.902V4.621C52.902 4.37789 52.8056 4.14473 52.6341 3.97282C52.4625 3.80091 52.2299 3.70433 51.9873 3.70433H45.5401C44.5774 1.243 41.5565 0 38.8307 0C36.105 0 33.0839 1.243 32.1212 3.705H25.6732C25.4306 3.705 25.1979 3.80158 25.0264 3.97349C24.8548 4.14539 24.7584 4.37855 24.7584 4.62167V5.82633H16.4463C14.208 5.83227 12.0631 6.72594 10.4804 8.31199C8.89771 9.89804 8.00593 12.0475 8 14.2905V71.5358C8.00593 73.7788 8.89771 75.9283 10.4804 77.5143C12.0631 79.1004 14.208 79.9941 16.4463 80H61.2151C63.4534 79.994 65.5982 79.1003 67.1809 77.5143C68.7636 75.9282 69.6553 73.7788 69.6613 71.5358V50.1388C75.9999 44.328 84.5483 35.813 77.115 28.364C76.1412 27.3916 74.9746 26.6347 73.6907 26.1421C72.4069 25.6495 71.0342 25.4323 69.6613 25.5043H69.6611ZM64.9258 26.993C65.8222 26.4294 66.804 26.0156 67.833 25.7678V14.2898C67.8272 12.5327 67.1281 10.8492 65.8882 9.60666C64.6484 8.36416 62.9684 7.66359 61.2149 7.65783H52.902V10.5712H61.2151C62.1986 10.5734 63.1412 10.9659 63.8366 11.6628C64.532 12.3597 64.9237 13.3043 64.9259 14.2898V26.993H64.9258ZM51.2214 28.364C52.757 26.8358 54.7511 25.8554 56.897 25.5736C59.0428 25.2919 61.2217 25.7244 63.0983 26.8047V14.2898C63.0963 13.7901 62.8973 13.3114 62.5447 12.958C62.192 12.6046 61.7143 12.4052 61.2156 12.4032H52.902V13.585C52.902 13.8281 52.8056 14.0613 52.6341 14.2332C52.4625 14.4051 52.2299 14.5017 51.9873 14.5017H25.6732C25.4306 14.5017 25.1979 14.4051 25.0264 14.2332C24.8548 14.0613 24.7584 13.8281 24.7584 13.585V12.4032H16.4463C15.9476 12.4052 15.4699 12.6046 15.1173 12.958C14.7647 13.3114 14.5657 13.7901 14.5636 14.2898V71.5358C14.5657 72.0356 14.7647 72.5143 15.1173 72.8677C15.4699 73.2211 15.9476 73.4205 16.4463 73.4225H53.0357V66.5597C53.038 65.5741 53.4297 64.6295 54.1252 63.9326C54.8206 63.2358 55.7632 62.8432 56.7467 62.841H63.0985V54.2138C62.3105 53.4508 61.4009 52.6328 60.4121 51.7437C58.8265 50.3177 57.0788 48.7437 55.4604 47.112L35.0288 47.0945C34.7873 47.0945 34.5556 46.9984 34.3849 46.8272C34.2141 46.6561 34.1182 46.424 34.1182 46.182C34.1182 45.94 34.2141 45.7079 34.3849 45.5368C34.5556 45.3656 34.7873 45.2695 35.0288 45.2695L53.7312 45.2862C52.3948 43.8379 51.2082 42.2576 50.1897 40.5695L35.0288 40.5565C34.7894 40.5533 34.561 40.4557 34.3928 40.2849C34.2247 40.1142 34.1305 39.884 34.1305 39.6441C34.1305 39.4042 34.2247 39.174 34.3928 39.0032C34.561 38.8325 34.7894 38.7349 35.0288 38.7317L49.2653 38.7438C48.0952 36.0035 47.9227 33.2085 49.522 30.5195L35.0291 30.5072C34.7876 30.5072 34.556 30.411 34.3852 30.2399C34.2144 30.0688 34.1185 29.8367 34.1185 29.5947C34.1185 29.3527 34.2144 29.1206 34.3852 28.9494C34.556 28.7783 34.7876 28.6822 35.0291 28.6822L50.9034 28.6958C51.0063 28.5852 51.112 28.4745 51.2219 28.3643L51.2214 28.364ZM56.2145 39.6795C56.0917 39.6839 55.9693 39.6634 55.8546 39.6194C55.7398 39.5753 55.6351 39.5086 55.5467 39.4231C55.4583 39.3376 55.388 39.2351 55.3399 39.1218C55.2919 39.0084 55.2671 38.8865 55.2671 38.7634C55.2671 38.6403 55.2919 38.5184 55.3399 38.4051C55.388 38.2918 55.4583 38.1893 55.5467 38.1038C55.6351 38.0183 55.7398 37.9515 55.8546 37.9074C55.9693 37.8634 56.0917 37.8429 56.2145 37.8473H60.1442L62.145 35.1167C62.243 34.9842 62.375 34.8806 62.5269 34.817C62.6787 34.7534 62.8449 34.732 63.0079 34.7551C63.1709 34.7783 63.3246 34.845 63.4529 34.9484C63.5812 35.0518 63.6793 35.1879 63.7368 35.3425L65.5875 40.3527L66.9947 38.2562C67.078 38.1315 67.1906 38.0293 67.3227 37.9587C67.4547 37.888 67.6021 37.8511 67.7518 37.8512V37.8482H72.6438C72.7666 37.8438 72.889 37.8642 73.0038 37.9083C73.1185 37.9523 73.2232 38.0191 73.3116 38.1046C73.4 38.1901 73.4704 38.2926 73.5184 38.4059C73.5664 38.5193 73.5912 38.6411 73.5912 38.7643C73.5912 38.8874 73.5664 39.0093 73.5184 39.1226C73.4704 39.2359 73.4 39.3384 73.3116 39.4239C73.2232 39.5094 73.1185 39.5762 73.0038 39.6202C72.889 39.6643 72.7666 39.6847 72.6438 39.6803H68.236L66.1366 42.8065C66.0489 42.9559 65.9206 43.0773 65.7667 43.1564C65.6128 43.2356 65.4396 43.2692 65.2673 43.2535C65.0951 43.2378 64.9308 43.1733 64.7937 43.0676C64.6566 42.9619 64.5523 42.8193 64.493 42.6565L62.613 37.5667L61.3769 39.2535C61.2946 39.3841 61.1805 39.4918 61.0454 39.5663C60.9103 39.6409 60.7586 39.6799 60.6044 39.6798L56.2145 39.6795Z" fill="#134F98"/>
</svg>
